<svg version="1.1" id="Layer_1" fill="#ffc107" stroke="4" xmlns="http://www.w3.org/2000/svg" xmlns:xlink="http://www.w3.org/1999/xlink" x="0px" y="0px" viewBox="0 0 83.44 122.88" style="enable-background:new 0 0 83.44 122.88" xml:space="preserve"><g><path d="M45.04,95.45v24.11c0,1.83-1.49,3.32-3.32,3.32c-1.83,0-3.32-1.49-3.32-3.32V95.45c-10.16-0.81-19.32-5.3-26.14-12.12 C4.69,75.77,0,65.34,0,53.87c0-1.83,1.49-3.32,3.32-3.32s3.32,1.49,3.32,3.32c0,9.64,3.95,18.41,10.31,24.77 c6.36,6.36,15.13,10.31,24.77,10.31h0c9.64,0,18.41-3.95,24.77-10.31c6.36-6.36,10.31-15.13,10.31-24.77 c0-1.83,1.49-3.32,3.32-3.32s3.32,1.49,3.32,3.32c0,11.48-4.69,21.91-12.25,29.47C64.36,90.16,55.2,94.64,45.04,95.45L45.04,95.45z M41.94,0c6.38,0,12.18,2.61,16.38,6.81c4.2,4.2,6.81,10,6.81,16.38v30c0,6.38-2.61,12.18-6.81,16.38c-4.2,4.2-10,6.81-16.38,6.81 s-12.18-2.61-16.38-6.81c-4.2-4.2-6.81-10-6.81-16.38v-30c0-6.38,2.61-12.18,6.81-16.38C29.76,2.61,35.56,0,41.94,0L41.94,0z M53.62,11.51c-3-3-7.14-4.86-11.68-4.86c-4.55,0-8.68,1.86-11.68,4.86c-3,3-4.86,7.14-4.86,11.68v30c0,4.55,1.86,8.68,4.86,11.68 c3,3,7.14,4.86,11.68,4.86c4.55,0,8.68-1.86,11.68-4.86c3-3,4.86-7.14,4.86-11.68v-30C58.49,18.64,56.62,14.51,53.62,11.51 L53.62,11.51z"/></g></svg>