<?xml version="1.0" encoding="iso-8859-1"?>
<!-- Generator: Adobe Illustrator 19.0.0, SVG Export Plug-In . SVG Version: 6.00 Build 0)  -->
<svg version="1.1" id="Layer_1" xmlns="http://www.w3.org/2000/svg" xmlns:xlink="http://www.w3.org/1999/xlink" x="0px" y="0px"
	 viewBox="0 0 473.654 473.654" style="enable-background:new 0 0 473.654 473.654;" xml:space="preserve">
<circle style="fill:#007bff;" cx="236.827" cy="236.827" r="236.827"/>
<path style="fill:#FFFFFF;" d="M358.072,216.091c-27.011-27.011-54.018-54.022-81.029-81.033
	c-17.124-17.127-47.781-4.529-47.781,19.737c0,13.485,0,26.97,0,40.455c-3.354-0.819-6.959-1.309-10.89-1.309
	c-25.904,0-51.808,0-77.712,0c-54.332,0-54.815,84.159-0.606,84.159c25.904,0,51.808,0,77.712,0c4.158,0,7.965-0.546,11.495-1.455
	c0,12.423,0,24.846,0,37.265c-0.146,1.731-0.105,3.455,0.108,5.153c0.8,12.038,8.04,19.764,17.09,23.14
	c8.867,4.353,19.711,4.241,29.008-3.803c1.511-1.148,2.891-2.464,4.121-3.953c26.233-26.229,52.466-52.462,78.696-78.692
	C369.13,244.916,368.834,226.85,358.072,216.091z"/>
</svg>
