<?xml version="1.0" encoding="iso-8859-1"?>
<!-- Generator: Adobe Illustrator 19.0.0, SVG Export Plug-In . SVG Version: 6.00 Build 0)  -->
<svg version="1.1" id="Layer_1" xmlns="http://www.w3.org/2000/svg" xmlns:xlink="http://www.w3.org/1999/xlink" x="0px" y="0px"
	 viewBox="0 0 473.654 473.654" style="enable-background:new 0 0 473.654 473.654;" xml:space="preserve">
<circle style="fill:#007bff;" cx="236.827" cy="236.827" r="236.827"/>
<path style="fill:#FFFFFF;" d="M338.566,193.946c-25.904,0-51.808,0-77.712,0c-4.162,0-7.965,0.546-11.495,1.455
	c0-13.399,0-26.798,0-40.2c0-24.666-30.515-37.411-47.994-19.932c-27.011,27.011-54.018,54.022-81.029,81.033
	c-10.841,10.841-10.549,28.907,0.213,39.669c27.011,27.007,54.018,54.018,81.029,81.025c9.446,9.446,20.796,9.947,30.062,5.553
	c9.846-3.336,17.722-11.753,17.722-25.291c0-13.489,0-26.974,0-40.462c3.354,0.819,6.959,1.309,10.89,1.309
	c25.904,0,51.808,0,77.712,0C392.293,278.105,392.775,193.946,338.566,193.946z"/>
</svg>
